HIERARCHY
ROOT Hips
{
	OFFSET -0.001795 -0.223333 0.028219
	CHANNELS 6 Xposition Yposition Zposition Zrotation Yrotation Xrotation 
	JOINT LeftUpLeg
	{
		OFFSET 0.069520 -0.091406 -0.006815
		CHANNELS 3 Zrotation Yrotation Xrotation
		JOINT LeftLeg
		{
			OFFSET 0.034277 -0.375199 -0.004496
			CHANNELS 3 Zrotation Yrotation Xrotation
			JOINT LeftFoot
			{
				OFFSET -0.013596 -0.397961 -0.043693
				CHANNELS 3 Zrotation Yrotation Xrotation
				JOINT LeftToe
				{
					OFFSET 0.026358 -0.055791 0.119288
					CHANNELS 3 Zrotation Yrotation Xrotation
					End Site
					{
						OFFSET 0.000000 0.000000 0.000000
					}
				}
			}
		}
	}
	JOINT RightUpLeg
	{
		OFFSET -0.067670 -0.090522 -0.004320
		CHANNELS 3 Zrotation Yrotation Xrotation
		JOINT RightLeg
		{
			OFFSET -0.038290 -0.382569 -0.008850
			CHANNELS 3 Zrotation Yrotation Xrotation
			JOINT RightFoot
			{
				OFFSET 0.015774 -0.398415 -0.042312
				CHANNELS 3 Zrotation Yrotation Xrotation
				JOINT RightToe
				{
					OFFSET -0.025372 -0.048144 0.123348
					CHANNELS 3 Zrotation Yrotation Xrotation
					End Site
					{
						OFFSET 0.000000 0.000000 0.000000
					}
				}
			}
		}
	}
	JOINT Spine
	{
		OFFSET -0.002533 0.108963 -0.026696
		CHANNELS 3 Zrotation Yrotation Xrotation
		JOINT Spine1
		{
			OFFSET 0.005487 0.135180 0.001092
			CHANNELS 3 Zrotation Yrotation Xrotation
			JOINT Spine2
			{
				OFFSET 0.001457 0.052922 0.025425
				CHANNELS 3 Zrotation Yrotation Xrotation
				JOINT Neck
				{
					OFFSET -0.002778 0.213870 -0.042857
					CHANNELS 3 Zrotation Yrotation Xrotation
					JOINT Head
					{
						OFFSET 0.005152 0.064970 0.051349
						CHANNELS 3 Zrotation Yrotation Xrotation
						End Site
						{
							OFFSET 0.000000 0.000000 0.000000
						}
					}
				}
				JOINT LeftShoulder
				{
					OFFSET 0.078845 0.121749 -0.034090
					CHANNELS 3 Zrotation Yrotation Xrotation
					JOINT LeftArm
					{
						OFFSET 0.090977 0.030469 -0.008868
						CHANNELS 3 Zrotation Yrotation Xrotation
						JOINT LeftForeArm
						{
							OFFSET 0.259612 -0.012772 -0.027456
							CHANNELS 3 Zrotation Yrotation Xrotation
							JOINT LeftHand
							{
								OFFSET 0.249234 0.008986 -0.001171
								CHANNELS 3 Zrotation Yrotation Xrotation
								End Site
								{
									OFFSET 0.000000 0.000000 0.000000
								}
							}
						}
					}
				}
				JOINT RightShoulder
				{
					OFFSET -0.081759 0.118833 -0.038615
					CHANNELS 3 Zrotation Yrotation Xrotation
					JOINT RightArm
					{
						OFFSET -0.096012 0.032551 -0.009143
						CHANNELS 3 Zrotation Yrotation Xrotation
						JOINT RightForeArm
						{
							OFFSET -0.253742 -0.013329 -0.021401
							CHANNELS 3 Zrotation Yrotation Xrotation
							JOINT RightHand
							{
								OFFSET -0.255298 0.007772 -0.005559
								CHANNELS 3 Zrotation Yrotation Xrotation
								End Site
								{
									OFFSET 0.000000 0.000000 0.000000
								}
							}
						}
					}
				}
			}
		}
	}
}
MOTION
Frames: 16
Frame Time: 0.050000
0.136550 0.947851 0.282694 -1.237493 21.258680 6.940821 -1.764732 -0.881118 -9.312174 4.544159 -0.029760 -4.902624 -10.266536 -11.029487 11.026263 0.000000 0.000000 0.000000 1.511347 0.944989 -8.967877 -3.190675 0.611600 3.971352 -0.616192 -3.325035 13.950382 0.000000 0.000000 0.000000 1.981871 -0.024174 -1.022392 -8.431300 3.568638 2.681772 3.547812 -0.402601 2.669159 -2.404573 2.841233 -8.662191 0.000000 0.000000 0.000000 -19.433360 -20.698891 6.674165 -45.775608 -14.902689 0.926334 -75.031805 -62.415654 49.844539 0.000000 0.000000 0.000000 2.891335 27.406701 11.454122 21.528400 26.280243 1.577907 54.855244 73.655554 48.295551 0.000000 0.000000 0.000000 
0.135566 0.947847 0.281262 -0.984358 21.066203 7.047974 -2.288376 -0.899892 -9.345571 5.057871 -0.045091 -5.034218 -10.251348 -10.876331 11.181778 0.000000 0.000000 0.000000 1.456860 0.945773 -9.017395 -3.542371 0.662624 3.802891 -0.551497 -3.217684 13.862141 0.000000 0.000000 0.000000 2.199624 -0.019402 -1.264802 -8.208209 3.466635 2.962197 3.418481 -0.366822 2.578325 -1.678416 2.382173 -8.981273 0.000000 0.000000 0.000000 -19.262597 -20.703507 6.696073 -45.601092 -13.878077 0.546312 -76.970697 -62.023558 51.026616 0.000000 0.000000 0.000000 2.638831 28.089968 11.670603 21.158926 26.967682 1.649750 50.015604 73.939689 44.394135 0.000000 0.000000 0.000000 
0.134422 0.947738 0.279820 -0.973706 20.677660 6.824665 -2.345574 -0.894070 -9.262279 5.202887 -0.063343 -4.868666 -10.036315 -10.617150 11.069001 0.000000 0.000000 0.000000 1.538414 0.962238 -9.131191 -3.696111 0.703641 4.177148 -0.389484 -2.955951 13.723702 0.000000 0.000000 0.000000 2.382344 -0.022191 -1.266826 -8.336115 3.542704 2.855574 3.324832 -0.269378 2.613760 -1.901299 2.525691 -8.976147 0.000000 0.000000 0.000000 -19.550363 -20.705550 6.722081 -45.192310 -13.019006 0.238634 -77.580683 -61.676984 51.242708 0.000000 0.000000 0.000000 2.941945 28.465945 11.910138 20.450026 27.706475 1.650200 43.836528 73.555608 38.940562 0.000000 0.000000 0.000000 
0.133294 0.947153 0.278380 -0.937269 20.649034 6.637101 -2.550908 -0.851961 -8.890353 5.551623 -0.050821 -5.343260 -10.066253 -10.624819 11.111054 0.000000 0.000000 0.000000 1.535620 0.963877 -9.151238 -3.693451 0.713021 4.408669 -0.407987 -2.962807 13.458056 0.000000 0.000000 0.000000 2.415665 -0.024897 -1.196724 -8.220888 3.490785 3.036998 3.123005 -0.279291 2.408338 -1.492427 2.318925 -9.661998 0.000000 0.000000 0.000000 -19.880738 -20.684595 6.701083 -44.626421 -12.300930 0.025291 -79.501919 -61.022843 52.150547 0.000000 0.000000 0.000000 2.933650 28.654698 11.992401 20.108038 28.662797 1.745103 33.373699 73.340942 30.466125 0.000000 0.000000 0.000000 
0.131968 0.946925 0.276660 -0.889987 21.096903 6.318889 -2.547830 -0.791783 -8.430286 5.510857 -0.018768 -5.846057 -10.392730 -10.920161 11.390130 0.000000 0.000000 0.000000 1.403049 0.917898 -8.726714 -3.396567 0.653685 4.153258 -0.602568 -3.266288 13.401148 0.000000 0.000000 0.000000 2.245043 -0.034741 -0.853911 -8.177644 3.457703 3.225131 3.036913 -0.214677 2.177224 -1.504445 2.384578 -10.101447 0.000000 0.000000 0.000000 -20.665870 -20.692150 6.609194 -44.290842 -11.961941 -0.012247 -79.672707 -61.015875 52.194426 0.000000 0.000000 0.000000 3.456827 28.956846 12.319852 19.861322 28.261545 1.633058 20.313264 72.979399 20.295221 0.000000 0.000000 0.000000 
0.130491 0.946357 0.274800 -0.970757 21.739548 6.087958 -2.219425 -0.701581 -7.793846 5.126616 0.055514 -6.993835 -10.873536 -11.296825 11.867485 0.000000 0.000000 0.000000 1.666866 0.895496 -8.266738 -3.541240 0.654814 3.591430 -0.905591 -3.741708 13.341587 0.000000 0.000000 0.000000 2.021342 -0.014729 -1.098806 -8.230126 3.439595 4.007890 3.055578 -0.226447 1.670232 -1.726495 2.510754 -9.880379 0.000000 0.000000 0.000000 -21.561130 -21.071744 6.748172 -43.148132 -10.957072 -0.244445 -82.053222 -61.538431 54.590272 0.000000 0.000000 0.000000 4.133620 29.828371 12.946228 18.637912 27.805561 1.364850 4.479216 70.662630 8.068798 0.000000 0.000000 0.000000 
0.129073 0.946033 0.273186 -0.963490 21.895774 5.958078 -1.760462 -0.670514 -7.593909 4.374717 0.089552 -7.368197 -11.007657 -11.331481 12.092569 0.000000 0.000000 0.000000 1.756073 0.879366 -8.017336 -3.607527 0.649187 3.201644 -0.978386 -3.852337 13.279950 0.000000 0.000000 0.000000 1.933872 -0.010143 -1.125719 -8.362556 3.481276 4.476180 2.997423 0.154526 1.348095 -1.634562 2.467981 -9.861536 0.000000 0.000000 0.000000 -22.071213 -21.204460 6.678168 -43.106612 -10.968342 -0.147331 -84.132598 -61.949382 56.543693 0.000000 0.000000 0.000000 4.244865 30.343849 13.274469 17.692640 27.352106 1.164086 -6.133099 67.741610 0.585679 0.000000 0.000000 0.000000 
0.127844 0.945722 0.271906 -1.094057 22.826806 5.666622 -1.385402 -0.644612 -7.429243 3.989810 0.102090 -7.577846 -11.522462 -11.931653 12.346988 0.000000 0.000000 0.000000 1.928587 0.834605 -7.408886 -3.466851 0.601213 2.563175 -1.384558 -4.504765 13.388510 0.000000 0.000000 0.000000 1.879768 -0.007657 -1.119451 -8.033443 3.294466 4.555771 2.828957 0.435403 1.564459 -1.096939 2.108720 -9.242717 0.000000 0.000000 0.000000 -22.622565 -21.776799 6.717352 -43.274592 -11.185078 0.027033 -85.215499 -62.551345 57.729916 0.000000 0.000000 0.000000 4.361446 30.376635 13.440750 16.874810 27.314847 1.022319 -11.754567 64.732478 -2.876499 0.000000 0.000000 0.000000 
0.126723 0.945686 0.270831 -1.281373 23.264497 5.702355 -0.752398 -0.660429 -7.627847 3.273924 0.113939 -7.701954 -11.765846 -12.119505 12.594627 0.000000 0.000000 0.000000 2.081571 0.848806 -7.462250 -3.275624 0.562850 2.347500 -1.564097 -4.797461 13.553291 0.000000 0.000000 0.000000 1.720319 0.006184 -1.368830 -8.042776 3.272939 4.716167 2.920804 0.504569 1.343455 -0.551693 1.760654 -9.233484 0.000000 0.000000 0.000000 -23.478153 -21.712937 6.571611 -43.671479 -11.678967 0.292001 -84.422969 -63.352285 57.736851 0.000000 0.000000 0.000000 4.873568 30.620953 13.767527 16.513314 26.509405 0.857159 -17.191368 61.595014 -5.888854 0.000000 0.000000 0.000000 
0.125823 0.945934 0.269770 -1.396887 23.672390 5.518816 -0.312497 -0.626029 -7.341481 2.725534 0.126303 -8.191236 -12.088139 -12.259103 13.030162 0.000000 0.000000 0.000000 2.544820 0.839906 -7.075170 -3.790713 0.617962 1.835250 -1.737415 -5.082937 13.815830 0.000000 0.000000 0.000000 1.648759 0.003272 -1.240397 -8.000437 3.235453 4.850771 2.719120 0.609539 1.415677 -0.733881 1.902387 -9.232489 0.000000 0.000000 0.000000 -23.939350 -22.052873 6.645406 -43.685029 -11.789043 0.389791 -84.724274 -64.176122 58.705438 0.000000 0.000000 0.000000 5.157511 30.520944 13.871902 16.238672 25.935254 0.735429 -20.480364 58.791768 -7.350324 0.000000 0.000000 0.000000 
0.124829 0.946204 0.268789 -1.316581 23.888088 5.332289 -0.205291 -0.587170 -6.975185 2.429746 0.131459 -8.616768 -12.328015 -12.293789 13.431085 0.000000 0.000000 0.000000 2.702073 0.808011 -6.661088 -4.123366 0.644989 1.405150 -1.823521 -5.225568 13.973347 0.000000 0.000000 0.000000 1.540669 -0.014227 -0.750875 -7.967975 3.229347 4.581339 2.375003 0.700210 1.822761 -0.710854 1.956022 -9.571149 0.000000 0.000000 0.000000 -24.079323 -22.109022 6.557786 -44.167114 -12.312175 0.586721 -81.931535 -65.023444 57.032481 0.000000 0.000000 0.000000 5.187730 30.451513 13.894937 16.051486 25.343964 0.629743 -24.522175 56.869408 -9.156710 0.000000 0.000000 0.000000 
0.123770 0.945831 0.267688 -1.326125 24.118941 5.033967 0.165715 -0.545134 -6.541401 1.826324 0.129330 -9.039436 -12.504621 -12.369686 13.660201 0.000000 0.000000 0.000000 3.011871 0.835994 -6.763764 -4.555226 0.743373 2.052619 -1.987737 -5.487539 13.774231 0.000000 0.000000 0.000000 1.433099 -0.025690 -0.391844 -7.947107 3.216550 4.544026 2.049497 0.842612 2.122943 -0.999479 2.135441 -9.262461 0.000000 0.000000 0.000000 -24.270615 -22.339224 6.555025 -44.714851 -12.699600 0.759516 -78.069062 -65.662711 54.255088 0.000000 0.000000 0.000000 5.402400 29.837383 13.726835 14.954133 24.562118 0.388506 -26.284510 55.807093 -9.833502 0.000000 0.000000 0.000000 
0.122463 0.945703 0.266342 -1.489702 24.480480 4.911412 0.381040 -0.560419 -6.684351 1.799822 0.125249 -8.966398 -12.689405 -12.579694 13.744319 0.000000 0.000000 0.000000 3.454562 0.851406 -6.679559 -4.933308 0.788922 1.862648 -2.161138 -5.761948 13.905307 0.000000 0.000000 0.000000 1.254556 -0.035002 -0.069770 -7.720159 3.110905 4.302248 1.900750 0.500951 2.555327 -0.699309 1.961465 -9.397963 0.000000 0.000000 0.000000 -23.980137 -22.348178 6.588347 -45.357805 -13.744937 1.084222 -73.724119 -66.132819 51.127409 0.000000 0.000000 0.000000 4.581708 29.625725 13.324272 14.500222 23.598582 0.253444 -25.153836 56.581549 -9.391834 0.000000 0.000000 0.000000 
0.121103 0.945485 0.264743 -1.621290 24.784824 5.039775 0.523103 -0.584410 -6.922555 1.845217 0.123884 -9.212351 -12.888835 -12.692527 13.972922 0.000000 0.000000 0.000000 3.644414 0.859099 -6.663920 -4.946651 0.757040 1.279391 -2.283405 -5.945315 14.060193 0.000000 0.000000 0.000000 1.201934 -0.042345 0.106760 -7.590423 3.057538 3.926247 1.597872 0.563799 3.265813 -0.754288 2.103466 -9.944426 0.000000 0.000000 0.000000 -23.625205 -22.819422 6.743485 -45.768529 -15.099691 1.558540 -68.596664 -66.476851 47.200755 0.000000 0.000000 0.000000 3.848293 29.297142 12.968479 14.530389 22.456123 0.150179 -24.336754 57.494453 -9.054854 0.000000 0.000000 0.000000 
0.119769 0.945097 0.263225 -1.531609 24.637827 5.253675 0.614006 -0.580658 -6.879231 1.607935 0.122436 -9.838060 -12.898876 -12.458785 14.279376 0.000000 0.000000 0.000000 3.467240 0.859406 -6.763048 -4.752005 0.703484 0.857960 -2.204161 -5.818069 13.967845 0.000000 0.000000 0.000000 0.984631 -0.042318 0.229230 -7.500486 3.024020 3.849955 1.406675 0.561286 3.239062 -0.945777 2.268216 -10.331478 0.000000 0.000000 0.000000 -23.679912 -22.973410 6.851044 -45.543337 -14.995508 1.525924 -65.554487 -66.696349 45.036959 0.000000 0.000000 0.000000 4.068106 29.342200 13.061997 13.780912 21.645767 0.000994 -21.227490 57.690920 -7.486334 0.000000 0.000000 0.000000 
0.118398 0.945353 0.261579 -1.695261 24.767164 5.091270 0.666324 -0.570465 -6.772126 1.864328 0.125397 -10.117843 -13.049103 -12.468116 14.536286 0.000000 0.000000 0.000000 3.499275 0.836699 -6.523919 -4.438653 0.633453 0.379306 -2.210232 -5.825480 14.226760 0.000000 0.000000 0.000000 0.830023 -0.057530 0.687452 -7.438085 2.976517 4.150307 1.204660 0.483699 3.233166 -0.863647 2.223385 -10.421913 0.000000 0.000000 0.000000 -23.906996 -23.202838 7.002547 -45.110329 -15.174318 1.593618 -64.340762 -67.087869 44.459163 0.000000 0.000000 0.000000 4.513182 29.297085 13.185685 13.025622 20.859502 -0.137395 -18.642016 57.766830 -6.184067 0.000000 0.000000 0.000000 
